<?xml version="1.0" encoding="UTF-8"?>
<svg xmlns="http://www.w3.org/2000/svg" xmlns:xlink="http://www.w3.org/1999/xlink" width="224pt" height="219pt" viewBox="0 0 224 219" version="1.1">
<g id="surface32019">
<path style="fill:none;stroke-width:2;stroke-linecap:butt;stroke-linejoin:round;stroke:rgb(0%,0%,0%);stroke-opacity:1;stroke-miterlimit:10;" d="M 55.042969 320 L 55.042969 120.21875 L 256 120.21875 L 256 320 Z M 55.042969 320 " transform="matrix(1,0,0,-1,-43,329)"/>
<path style="fill:none;stroke-width:2;stroke-linecap:butt;stroke-linejoin:round;stroke:rgb(0%,39.2%,0%);stroke-opacity:1;stroke-dasharray:4;stroke-miterlimit:10;" d="M 246.757812 219.441406 C 281.03125 278.90625 267.972656 327.109375 217.589844 327.109375 C 167.210938 327.109375 98.585938 278.90625 64.3125 219.441406 C 30.042969 159.980469 43.101562 111.777344 93.480469 111.777344 C 143.863281 111.777344 212.484375 159.980469 246.757812 219.441406 Z M 246.757812 219.441406 " transform="matrix(1,0,0,-1,-43,329)"/>
<path style="fill:none;stroke-width:2;stroke-linecap:butt;stroke-linejoin:round;stroke:rgb(100%,100%,100%);stroke-opacity:1;stroke-dasharray:4;stroke-miterlimit:10;" d="M 62.941406 120.21875 L 133.753906 120.21875 " transform="matrix(1,0,0,-1,-43,329)"/>
<path style="fill:none;stroke-width:2;stroke-linecap:butt;stroke-linejoin:round;stroke:rgb(100%,100%,100%);stroke-opacity:1;stroke-dasharray:4;stroke-miterlimit:10;" d="M 55.042969 201.023438 L 55.042969 127.542969 " transform="matrix(1,0,0,-1,-43,329)"/>
<path style="fill:none;stroke-width:2;stroke-linecap:butt;stroke-linejoin:round;stroke:rgb(100%,100%,100%);stroke-opacity:1;stroke-dasharray:4;stroke-miterlimit:10;" d="M 256 311.378906 L 256 237.792969 " transform="matrix(1,0,0,-1,-43,329)"/>
<path style="fill:none;stroke-width:2;stroke-linecap:butt;stroke-linejoin:round;stroke:rgb(100%,100%,100%);stroke-opacity:1;stroke-dasharray:4;stroke-miterlimit:10;" d="M 246.09375 320 L 180.894531 320 " transform="matrix(1,0,0,-1,-43,329)"/>
<path style=" stroke:none;fill-rule:evenodd;fill:rgb(54.5%,0%,0%);fill-opacity:1;" d="M 140.894531 9 C 140.894531 5 134.894531 5 134.894531 9 C 134.894531 13 140.894531 13 140.894531 9 Z M 140.894531 9 "/>
<path style=" stroke:none;fill-rule:evenodd;fill:rgb(54.5%,0%,0%);fill-opacity:1;" d="M 206.09375 9 C 206.09375 5 200.09375 5 200.09375 9 C 200.09375 13 206.09375 13 206.09375 9 Z M 206.09375 9 "/>
<path style=" stroke:none;fill-rule:evenodd;fill:rgb(54.5%,0%,0%);fill-opacity:1;" d="M 216 17.621094 C 216 13.621094 210 13.621094 210 17.621094 C 210 21.621094 216 21.621094 216 17.621094 Z M 216 17.621094 "/>
<path style=" stroke:none;fill-rule:evenodd;fill:rgb(54.5%,0%,0%);fill-opacity:1;" d="M 216 91.207031 C 216 87.207031 210 87.207031 210 91.207031 C 210 95.207031 216 95.207031 216 91.207031 Z M 216 91.207031 "/>
<path style=" stroke:none;fill-rule:evenodd;fill:rgb(54.5%,0%,0%);fill-opacity:1;" d="M 22.941406 208.78125 C 22.941406 204.78125 16.941406 204.78125 16.941406 208.78125 C 16.941406 212.78125 22.941406 212.78125 22.941406 208.78125 Z M 22.941406 208.78125 "/>
<path style=" stroke:none;fill-rule:evenodd;fill:rgb(54.5%,0%,0%);fill-opacity:1;" d="M 15.042969 201.457031 C 15.042969 197.457031 9.042969 197.457031 9.042969 201.457031 C 9.042969 205.457031 15.042969 205.457031 15.042969 201.457031 Z M 15.042969 201.457031 "/>
<path style=" stroke:none;fill-rule:evenodd;fill:rgb(54.5%,0%,0%);fill-opacity:1;" d="M 15.042969 127.976562 C 15.042969 123.976562 9.042969 123.976562 9.042969 127.976562 C 9.042969 131.976562 15.042969 131.976562 15.042969 127.976562 Z M 15.042969 127.976562 "/>
<path style=" stroke:none;fill-rule:evenodd;fill:rgb(54.5%,0%,0%);fill-opacity:1;" d="M 93.753906 208.78125 C 93.753906 204.78125 87.753906 204.78125 87.753906 208.78125 C 87.753906 212.78125 93.753906 212.78125 93.753906 208.78125 Z M 93.753906 208.78125 "/>
</g>
</svg>
